<svg width="21" height="25" viewBox="0 0 21 25" fill="none" xmlns="http://www.w3.org/2000/svg">
<path d="M17.2459 13.3307C17.2697 11.4816 18.2628 9.73192 19.8381 8.76341C18.8443 7.34406 17.1797 6.44415 15.4479 6.38997C13.6007 6.19608 11.8099 7.49528 10.8687 7.49528C9.90917 7.49528 8.45992 6.40922 6.89932 6.44133C4.86514 6.50705 2.96877 7.66357 1.9791 9.44198C-0.148296 13.1252 1.43855 18.5384 3.47642 21.5157C4.49601 22.9736 5.68762 24.6021 7.24682 24.5443C8.77258 24.481 9.34243 23.5714 11.1842 23.5714C13.0088 23.5714 13.5434 24.5443 15.1343 24.5076C16.7715 24.481 17.803 23.0432 18.7868 21.5715C19.5194 20.5327 20.0831 19.3846 20.4571 18.1698C18.533 17.356 17.2482 15.4197 17.2459 13.3307Z" fill="#121212"/>
<path d="M14.2411 4.43197C15.1338 3.36034 15.5736 1.98294 15.4671 0.592285C14.1032 0.735528 12.8435 1.38734 11.9387 2.41786C11.054 3.42472 10.5936 4.77788 10.6806 6.11539C12.0449 6.12943 13.3862 5.49529 14.2411 4.43197Z" fill="#121212"/>
</svg>
