<svg width="18" height="17" viewBox="0 0 18 17" fill="none" xmlns="http://www.w3.org/2000/svg">
<path fill-rule="evenodd" clip-rule="evenodd" d="M17.6606 7.58561C17.8066 7.74407 17.8907 7.9611 17.8942 8.18903C17.8977 8.41696 17.8205 8.63715 17.6795 8.80124L11.6538 15.8023C11.585 15.8882 11.5014 15.9576 11.4081 16.0065C11.3148 16.0553 11.2137 16.0826 11.1108 16.0866C11.0079 16.0907 10.9053 16.0714 10.8092 16.0301C10.7131 15.9887 10.6254 15.926 10.5513 15.8457C10.4772 15.7655 10.4183 15.6693 10.3781 15.563C10.3379 15.4566 10.3172 15.3423 10.3172 15.2268C10.3172 15.1112 10.338 14.9969 10.3782 14.8906C10.4185 14.7842 10.4774 14.6881 10.5515 14.6079L15.2917 9.10038L0.787903 9.38444C0.584592 9.38842 0.388197 9.30162 0.241926 9.14313C0.0956548 8.98464 0.0114868 8.76745 0.00793799 8.53933C0.00438919 8.31121 0.0817503 8.09086 0.223003 7.92674C0.364255 7.76262 0.55783 7.66818 0.761141 7.6642L15.2649 7.38015L10.3563 2.06162C10.2798 1.98435 10.2179 1.89058 10.1744 1.78589C10.1308 1.6812 10.1065 1.56775 10.1029 1.4523C10.0993 1.33685 10.1164 1.22176 10.1533 1.1139C10.1902 1.00605 10.2461 0.907635 10.3176 0.824534C10.3891 0.741433 10.4748 0.675347 10.5696 0.630218C10.6644 0.58509 10.7663 0.561843 10.8693 0.561865C10.9722 0.561887 11.0741 0.585176 11.1689 0.630345C11.2637 0.675514 11.3493 0.741636 11.4208 0.824768L17.6606 7.58561Z" fill="#1F3C0C"/>
</svg>
