<svg width="27" height="30" viewBox="0 0 27 30" fill="none" xmlns="http://www.w3.org/2000/svg">
<g filter="url(#filter0_ii_360_13)">
<path d="M1.47952 1.29173C1.15942 1.63053 0.970214 2.15633 0.970214 2.83723V27.1648C0.970214 27.8468 1.15942 28.3715 1.47952 28.7103L1.56092 28.7895L15.1888 15.1616V15.001V14.8404L1.56092 1.21143L1.47952 1.29173Z" fill="url(#paint0_linear_360_13)"/>
<path d="M19.7306 19.7057L15.1887 15.1616V15.001V14.8404L19.7317 10.2974L19.834 10.3557L25.2163 13.4137C26.753 14.2871 26.753 15.716 25.2163 16.5905L19.834 19.6485L19.7306 19.7057Z" fill="url(#paint1_linear_360_13)"/>
<g filter="url(#filter1_i_360_13)">
<path d="M19.8341 19.6474L15.1877 15.001L1.47949 28.7103C1.98549 29.2471 2.82259 29.3131 3.76529 28.7785L19.8341 19.6474Z" fill="url(#paint2_linear_360_13)"/>
</g>
<path d="M19.8341 10.3547L3.76529 1.22466C2.82259 0.688963 1.98549 0.756063 1.47949 1.29286L15.1888 15.0022L19.8341 10.3547Z" fill="url(#paint3_linear_360_13)"/>
</g>
<defs>
<filter id="filter0_ii_360_13" x="0.970215" y="0.85498" width="25.3987" height="28.293" filterUnits="userSpaceOnUse" color-interpolation-filters="sRGB">
<feFlood flood-opacity="0" result="BackgroundImageFix"/>
<feBlend mode="normal" in="SourceGraphic" in2="BackgroundImageFix" result="shape"/>
<feColorMatrix in="SourceAlpha" type="matrix" values="0 0 0 0 0 0 0 0 0 0 0 0 0 0 0 0 0 0 127 0" result="hardAlpha"/>
<feOffset dy="-0.15"/>
<feComposite in2="hardAlpha" operator="arithmetic" k2="-1" k3="1"/>
<feColorMatrix type="matrix" values="0 0 0 0 0 0 0 0 0 0 0 0 0 0 0 0 0 0 0.12 0"/>
<feBlend mode="normal" in2="shape" result="effect1_innerShadow_360_13"/>
<feColorMatrix in="SourceAlpha" type="matrix" values="0 0 0 0 0 0 0 0 0 0 0 0 0 0 0 0 0 0 127 0" result="hardAlpha"/>
<feOffset dy="0.15"/>
<feComposite in2="hardAlpha" operator="arithmetic" k2="-1" k3="1"/>
<feColorMatrix type="matrix" values="0 0 0 0 1 0 0 0 0 1 0 0 0 0 1 0 0 0 0.25 0"/>
<feBlend mode="normal" in2="effect1_innerShadow_360_13" result="effect2_innerShadow_360_13"/>
</filter>
<filter id="filter1_i_360_13" x="1.47949" y="15.001" width="18.3545" height="14.147" filterUnits="userSpaceOnUse" color-interpolation-filters="sRGB">
<feFlood flood-opacity="0" result="BackgroundImageFix"/>
<feBlend mode="normal" in="SourceGraphic" in2="BackgroundImageFix" result="shape"/>
<feColorMatrix in="SourceAlpha" type="matrix" values="0 0 0 0 0 0 0 0 0 0 0 0 0 0 0 0 0 0 127 0" result="hardAlpha"/>
<feOffset dy="-0.15"/>
<feComposite in2="hardAlpha" operator="arithmetic" k2="-1" k3="1"/>
<feColorMatrix type="matrix" values="0 0 0 0 0 0 0 0 0 0 0 0 0 0 0 0 0 0 0.08 0"/>
<feBlend mode="normal" in2="shape" result="effect1_innerShadow_360_13"/>
</filter>
<linearGradient id="paint0_linear_360_13" x1="13.9808" y1="2.57983" x2="-4.4794" y2="21.04" gradientUnits="userSpaceOnUse">
<stop stop-color="#00A0FF"/>
<stop offset="0.0066" stop-color="#00A1FF"/>
<stop offset="0.2601" stop-color="#00BEFF"/>
<stop offset="0.5122" stop-color="#00D2FF"/>
<stop offset="0.7604" stop-color="#00DFFF"/>
<stop offset="1" stop-color="#00E3FF"/>
</linearGradient>
<linearGradient id="paint1_linear_360_13" x1="27.2167" y1="15.001" x2="0.601182" y2="15.001" gradientUnits="userSpaceOnUse">
<stop stop-color="#FFE000"/>
<stop offset="0.4087" stop-color="#FFBD00"/>
<stop offset="0.7754" stop-color="#FFA500"/>
<stop offset="1" stop-color="#FF9C00"/>
</linearGradient>
<linearGradient id="paint2_linear_360_13" x1="17.3108" y1="17.5243" x2="-7.72354" y2="42.5586" gradientUnits="userSpaceOnUse">
<stop stop-color="#FF3A44"/>
<stop offset="1" stop-color="#C31162"/>
</linearGradient>
<linearGradient id="paint3_linear_360_13" x1="-1.97297" y1="-6.80556" x2="9.20556" y2="4.37298" gradientUnits="userSpaceOnUse">
<stop stop-color="#32A071"/>
<stop offset="0.0685" stop-color="#2DA771"/>
<stop offset="0.4762" stop-color="#15CF74"/>
<stop offset="0.8009" stop-color="#06E775"/>
<stop offset="1" stop-color="#00F076"/>
</linearGradient>
</defs>
</svg>
