<svg width="26" height="26" viewBox="0 0 26 26" fill="none" xmlns="http://www.w3.org/2000/svg">
<path d="M13 0.8125C6.25 0.8125 0.8125 6.25 0.8125 13C0.8125 19.75 6.25 25.1875 13 25.1875C19.75 25.1875 25.1875 19.75 25.1875 13C25.1875 11.6875 25.0112 10.3806 24.5425 9.16187L23.02 10.6562C23.2075 11.4062 23.3134 12.1562 23.3134 13C23.3134 18.7188 18.7197 23.3125 13.0009 23.3125C7.28219 23.3125 2.6875 18.7188 2.6875 13C2.6875 7.28125 7.28125 2.6875 13 2.6875C15.8125 2.6875 18.3381 3.80687 20.1194 5.58812L21.4375 4.27C19.2812 2.11375 16.2812 0.8125 13 0.8125ZM23.575 4.825L13 15.4028L8.9875 11.3903L7.6375 12.7375L12.325 17.425L13 18.0681L13.675 17.4241L24.925 6.17406L23.575 4.82406V4.825Z" fill="#B79D52"/>
</svg>
